<svg id="Layer_1" data-name="Layer 1" xmlns="http://www.w3.org/2000/svg" xmlns:xlink="http://www.w3.org/1999/xlink" width="300" height="225" viewBox="0 0 300 225">
  <defs>
    <style>
      .cls-1 {
        fill: #fff;
      }

      .cls-2 {
        fill: url(#linear-gradient);
      }

      .cls-3 {
        fill: #607d8b;
      }

      .cls-4 {
        opacity: 0.87;
      }
    </style>
    <linearGradient id="linear-gradient" x1="150" y1="140" x2="150" y2="136" gradientUnits="userSpaceOnUse">
      <stop offset="0" stop-opacity="0"/>
      <stop offset="0.11" stop-opacity="0"/>
      <stop offset="0.51" stop-opacity="0.1"/>
      <stop offset="0.86" stop-opacity="0.3"/>
      <stop offset="1" stop-opacity="0.4"/>
    </linearGradient>
  </defs>
  <title>screenshot-d8</title>
  <rect class="cls-1" width="300" height="225"/>
  <rect class="cls-2" y="136" width="300" height="4"/>
  <rect class="cls-3" width="300" height="136"/>
  <g>
    <rect class="cls-1" x="36" y="36.7" width="64" height="64" rx="5.06" ry="5.06"/>
    <path class="cls-3" d="M87.2,87.9H48.8V81.5H87.2v6.4ZM80.8,49.5h0L68,62.3,55.2,49.5H48.8V75.1h6.4V58.56L68,71.36l12.8-12.8V75.1h6.4V49.5H80.8Z"/>
  </g>
  <g>
    <path class="cls-1" d="M154.29,61.3V42.76L146.95,61.3h-1.8l-7.38-18.54V61.3h-4.21v-24h5.94L146,53.78l6.52-16.49h5.94v24h-4.21Z"/>
    <path class="cls-1" d="M175.75,61.3V58.92a7,7,0,0,1-5.58,2.81c-4.43,0-7.7-3.38-7.7-9.14s3.24-9.11,7.7-9.11a6.83,6.83,0,0,1,5.58,2.84V43.91h3.78V61.3h-3.78Zm0-5.26V49.17a5.64,5.64,0,0,0-4.46-2.34c-3,0-4.93,2.41-4.93,5.76s1.91,5.8,4.93,5.8A5.64,5.64,0,0,0,175.75,56Z"/>
    <path class="cls-1" d="M185.21,57.23v-10h-2.88V43.91h2.88V39.16H189v4.75h3.53v3.28H189V56.3c0,1.19.58,2.09,1.66,2.09a2.35,2.35,0,0,0,1.66-.65l0.9,2.88a5.12,5.12,0,0,1-3.53,1.12C186.73,61.73,185.21,60.15,185.21,57.23Z"/>
    <path class="cls-1" d="M194.86,52.59a8.79,8.79,0,0,1,8.82-9.11c5.22,0,8.53,4,8.53,9.43v0.94H198.82a5.26,5.26,0,0,0,5.51,4.79,7.31,7.31,0,0,0,5-1.94L211,59.18A10.28,10.28,0,0,1,204,61.73,8.72,8.72,0,0,1,194.86,52.59Zm8.78-6a4.76,4.76,0,0,0-4.86,4.57h9.79A4.68,4.68,0,0,0,203.65,46.58Z"/>
    <path class="cls-1" d="M216,61.3V43.91h3.78v2.52a7.54,7.54,0,0,1,5.65-3v3.74a5.24,5.24,0,0,0-1.15-.11,5.93,5.93,0,0,0-4.5,2.34V61.3H216Z"/>
    <path class="cls-1" d="M228,39.45a2.34,2.34,0,1,1,2.34,2.34A2.34,2.34,0,0,1,228,39.45Zm0.43,21.85V43.91h3.78V61.3h-3.78Z"/>
    <path class="cls-1" d="M249.36,61.3V58.92a7,7,0,0,1-5.58,2.81c-4.43,0-7.7-3.38-7.7-9.14s3.24-9.11,7.7-9.11a6.83,6.83,0,0,1,5.58,2.84V43.91h3.78V61.3h-3.78Zm0-5.26V49.17a5.64,5.64,0,0,0-4.46-2.34c-3,0-4.93,2.41-4.93,5.76s1.91,5.8,4.93,5.8A5.64,5.64,0,0,0,249.36,56Z"/>
    <path class="cls-1" d="M258,61.3v-24h3.78v24H258Z"/>
    <path class="cls-1" d="M133.56,100.3v-24h11.81c4.43,0,6.84,2.74,6.84,6.12A5.42,5.42,0,0,1,148,87.92a5.86,5.86,0,0,1,4.64,5.87c0,3.74-2.45,6.52-7,6.52H133.56Zm14.33-17.21a3,3,0,0,0-3.35-3.1h-6.77v6.19h6.77C146.66,86.19,147.88,84.93,147.88,83.09Zm0.47,10.15a3.31,3.31,0,0,0-3.64-3.35h-6.95v6.7h6.95C147,96.59,148.35,95.33,148.35,93.24Z"/>
    <path class="cls-1" d="M169,100.3V97.92a7,7,0,0,1-5.58,2.81c-4.43,0-7.7-3.38-7.7-9.14s3.24-9.11,7.7-9.11A6.83,6.83,0,0,1,169,85.33V82.91h3.78V100.3H169ZM169,95V88.17a5.64,5.64,0,0,0-4.46-2.34c-3,0-4.93,2.41-4.93,5.76s1.91,5.8,4.93,5.8A5.64,5.64,0,0,0,169,95Z"/>
    <path class="cls-1" d="M176.25,98L178,95.3a8.93,8.93,0,0,0,5.87,2.41c2.27,0,3.46-.94,3.46-2.3,0-3.42-10.51-1-10.51-7.67,0-2.84,2.45-5.26,6.84-5.26a9.93,9.93,0,0,1,6.73,2.41l-1.58,2.66a7.09,7.09,0,0,0-5.15-2.09c-2,0-3.2.94-3.2,2.16,0,3.06,10.51.76,10.51,7.67,0,3.1-2.56,5.44-7.24,5.44A10.54,10.54,0,0,1,176.25,98Z"/>
    <path class="cls-1" d="M193.67,91.59a8.79,8.79,0,0,1,8.82-9.11c5.22,0,8.53,4,8.53,9.43v0.94H197.63a5.26,5.26,0,0,0,5.51,4.79,7.31,7.31,0,0,0,5-1.94l1.73,2.48a10.28,10.28,0,0,1-7.05,2.56A8.72,8.72,0,0,1,193.67,91.59Zm8.78-6a4.76,4.76,0,0,0-4.86,4.57h9.79A4.68,4.68,0,0,0,202.46,85.58Z"/>
  </g>
  <g class="cls-4">
    <path d="M36.5,189V167.66h7.3c6.62,0,10.94,4.64,10.94,10.69S50.42,189,43.79,189H36.5ZM52,178.34c0-4.61-2.91-8.32-8.19-8.32H39.15v16.61h4.64C49,186.63,52,182.92,52,178.34Z"/>
    <path d="M58.8,189V173.54h2.4V176a6.57,6.57,0,0,1,5.15-2.82v2.46a4.2,4.2,0,0,0-1-.1,5.65,5.65,0,0,0-4.19,2.46V189H58.8Z"/>
    <path d="M79.79,189v-2.18a7.56,7.56,0,0,1-5.5,2.56c-3.23,0-4.93-1.57-4.93-4.93V173.54h2.4v10.18c0,2.72,1.38,3.52,3.46,3.52a5.91,5.91,0,0,0,4.58-2.34V173.54h2.4V189h-2.4Z"/>
    <path d="M89.39,186.66v8.22H87V173.54h2.4v2.3a6.46,6.46,0,0,1,5.22-2.69c4.06,0,6.88,3.07,6.88,8.1s-2.82,8.13-6.88,8.13A6.33,6.33,0,0,1,89.39,186.66ZM99,181.26c0-3.42-1.86-6-5-6a5.71,5.71,0,0,0-4.61,2.46v7a5.74,5.74,0,0,0,4.61,2.5C97.1,187.24,99,184.68,99,181.26Z"/>
    <path d="M116.49,189v-2.3a6.51,6.51,0,0,1-5.22,2.69c-4,0-6.88-3.07-6.88-8.1s2.85-8.13,6.88-8.13a6.46,6.46,0,0,1,5.22,2.72v-2.34h2.4V189h-2.4Zm0-4.22v-7a5.74,5.74,0,0,0-4.61-2.5c-3.14,0-5,2.56-5,6s1.86,6,5,6A5.71,5.71,0,0,0,116.49,184.78Z"/>
    <path d="M123.69,189V167.66h2.4V189h-2.4Z"/>
    <path d="M138.41,183.59c0-2.85,2.43-4.8,5.09-5.6-2.46-.7-4.74-2.3-4.74-5.12,0-3.84,3.74-5.54,7.3-5.54s7.33,1.7,7.33,5.54c0,2.82-2.3,4.42-4.77,5.12,2.66,0.8,5.09,2.75,5.09,5.6,0,3.62-3.46,5.79-7.65,5.79S138.41,187.24,138.41,183.59ZM151,183.3c0-2.78-3.65-4-5-4.13-1.31.16-5,1.34-5,4.13,0,2.3,2.34,3.71,5,3.71S151,185.61,151,183.3Zm-0.32-10.08c0-2.21-2.08-3.52-4.64-3.52s-4.64,1.31-4.64,3.52c0,2.59,3.36,3.46,4.64,3.68C147.37,176.68,150.7,175.82,150.7,173.23Z"/>
    <path d="M171.37,189V170h-6.75v-2.37h16.19V170H174v19h-2.66Z"/>
    <path d="M194.7,189V178.83c0-2.72-1.41-3.52-3.49-3.52a6.07,6.07,0,0,0-4.58,2.4V189h-2.4V167.66h2.4v8.13a7.68,7.68,0,0,1,5.54-2.62c3.23,0,4.93,1.57,4.93,4.93V189h-2.4Z"/>
    <path d="M201,181.26c0-4.48,3.2-8.1,7.62-8.1,4.67,0,7.42,3.65,7.42,8.29v0.61H203.53a5.45,5.45,0,0,0,5.57,5.34,6.75,6.75,0,0,0,4.77-2L215,187a8.4,8.4,0,0,1-6.14,2.37C204.3,189.38,201,186.09,201,181.26Zm7.58-6.11a5.16,5.16,0,0,0-5.06,5.15h10.14A5,5,0,0,0,208.59,175.14Z"/>
    <path d="M238.57,189V178.5c0-2-.86-3.2-2.85-3.2a5.41,5.41,0,0,0-4.1,2.37V189h-2.4V178.5c0-2-.83-3.2-2.85-3.2a5.4,5.4,0,0,0-4.06,2.4V189h-2.4V173.54h2.4v2.24a6.68,6.68,0,0,1,5-2.62,4,4,0,0,1,4.16,2.88,6.5,6.5,0,0,1,5.18-2.88c2.82,0,4.32,1.57,4.32,4.67V189h-2.4Z"/>
    <path d="M244.88,181.26c0-4.48,3.2-8.1,7.62-8.1,4.67,0,7.42,3.65,7.42,8.29v0.61H247.4A5.45,5.45,0,0,0,253,187.4a6.75,6.75,0,0,0,4.77-2l1.15,1.57a8.4,8.4,0,0,1-6.14,2.37C248.17,189.38,244.88,186.09,244.88,181.26Zm7.58-6.11a5.16,5.16,0,0,0-5.06,5.15h10.14A5,5,0,0,0,252.46,175.14Z"/>
  </g>
</svg>
