<svg xmlns="http://www.w3.org/2000/svg" width="240" height="48" viewBox="0 0 240 48">
  <defs>
    <style>
      .cls-1 {
        fill: #424242;
      }

      .cls-2 {
        fill: #1e88e5;
      }

      .cls-3 {
        fill: #388e3c;
      }

      .cls-4 {
        fill: #fbc02d;
      }

      .cls-5 {
        fill: #d32f2f;
      }

      .cls-6 {
        fill: #00bcd4;
      }

      .cls-7 {
        fill: #673ab7;
      }

      .cls-8 {
        fill: #ff6d00;
      }

      .cls-9 {
        fill: #5d4037;
      }
    </style>
  </defs>
  <title>file-icons</title>
  <g id="Layer_2" data-name="Layer 2">
    <path d="M14,3H6A2,2,0,0,0,4,5V19a2,2,0,0,0,2,2H18a2,2,0,0,0,2-2V9Zm4,16H6V5h7v5h5Z"/>
    <path d="M43,3H29a2,2,0,0,0-2,2V19a2,2,0,0,0,2,2H43a2,2,0,0,0,2-2V5A2,2,0,0,0,43,3ZM41,9H31V7H41Zm0,4H31V11H41Zm-3,4H31V15h7Z"/>
    <path d="M67,3H53a2,2,0,0,0-2,2V8h0V19a2,2,0,0,0,2,2H67a2,2,0,0,0,2-2V5A2,2,0,0,0,67,3Zm0,8H59v8H57V11H53V9h4V5h2V9h8Z"/>
    <path d="M91,3H77a2,2,0,0,0-2,2V19a2,2,0,0,0,2,2H91a2,2,0,0,0,2-2V5A2,2,0,0,0,91,3Zm0,13H77V8H91Z"/>
    <path d="M107.3,8.6h0a3.71,3.71,0,0,0,.2-.9V7.5a1.56,1.56,0,0,0,0-1V6.4l-.1-.1h0a.1.1,0,0,1-.1.1,4.07,4.07,0,0,0,0,2.2Zm-3,6.9a2.19,2.19,0,0,0-.5.3,4.93,4.93,0,0,0-1.3,1.6h0c.6-.1,1.2-.7,1.8-1.9Zm9.2-1.5c-.1-.1-.5-.4-1.9-.4h-.2v.1a5.37,5.37,0,0,0,1.9.5h.3v-.1h0A.1.1,0,0,1,113.5,14ZM115,3H101a2,2,0,0,0-2,2V19a2,2,0,0,0,2,2h14a2,2,0,0,0,2-2V5A2,2,0,0,0,115,3Zm-1.1,11.8a2,2,0,0,1-.9.2,7.21,7.21,0,0,1-3-.7,16.47,16.47,0,0,0-4,.8c-.1,0-.1,0-.2.1-1.2,2.1-2.2,3.1-3,3.1-.2,0-.3,0-.4-.1l-.5-.3v-.1a.9.9,0,0,1-.1-.5,3.85,3.85,0,0,1,1.9-2.1c.2-.1.5-.3.9-.5.3-.5.6-1.1,1-1.8a21.16,21.16,0,0,0,1.1-2.9h0a4.64,4.64,0,0,1-.2-3.3c.1-.4.4-.8.8-.8h.2a1.42,1.42,0,0,1,.6.2c.7.7.4,2.3,0,3.6v.1a7.22,7.22,0,0,0,1.6,2.6,7,7,0,0,0,.9.6c.5,0,.9-.1,1.3-.1,1.2,0,2,.2,2.3.7a1.27,1.27,0,0,1,.1.6A6.13,6.13,0,0,1,113.9,14.8Zm-6.5-3.9a20.83,20.83,0,0,1-1,2.4c-.2.4-.4.7-.6,1.1h.2a15.13,15.13,0,0,1,3.3-.9,1.38,1.38,0,0,1-.4-.3A10.17,10.17,0,0,1,107.4,10.9Z"/>
    <path d="M139,3H125a2,2,0,0,0-2,2V19a2,2,0,0,0,2,2h14a2,2,0,0,0,2-2V5A2,2,0,0,0,139,3ZM125,18l3.5-4.5,2.5,3L134.5,12l4.5,6Z"/>
    <path d="M162,3V5h-2V3h-8V5h-2V3h-2V21h2V19h2v2h8V19h2v2h2V3ZM152,17h-2V15h2Zm0-4h-2V11h2Zm0-4h-2V7h2Zm10,8h-2V15h2Zm0-4h-2V11h2Zm0-4h-2V7h2Z"/>
    <path d="M184,9h-3v5.5a2.5,2.5,0,1,1-1-2V7h4m3-4H173a2,2,0,0,0-2,2V19a2,2,0,0,0,2,2h14a2,2,0,0,0,2-2V5A2,2,0,0,0,187,3Z"/>
    <path d="M206,17h-2V15h-2V13h2v2h2m0-6h-2v2h2v2h-2V11h-2V9h2V7h-2V5h2V7h2m5-4H197a2,2,0,0,0-2,2V19a2,2,0,0,0,2,2h14a2,2,0,0,0,2-2V5A2,2,0,0,0,211,3Z"/>
    <path d="M235,3H221a2,2,0,0,0-2,2V19a2,2,0,0,0,2,2h14a2,2,0,0,0,2-2V5A2,2,0,0,0,235,3Zm-8.42,11.33-1.42,1.41L221.42,12l3.74-3.74,1.42,1.41L224.25,12Zm4.26,1.41-1.42-1.41L231.75,12l-2.33-2.33,1.42-1.41L234.58,12Z"/>
  </g>
  <g id="Layer_3" data-name="Layer 3">
    <path class="cls-1" d="M14,27H6a2,2,0,0,0-2,2V43a2,2,0,0,0,2,2H18a2,2,0,0,0,2-2V33Zm4,16H6V29h7v5h5Z"/>
    <path class="cls-2" d="M43,27H29a2,2,0,0,0-2,2V43a2,2,0,0,0,2,2H43a2,2,0,0,0,2-2V29A2,2,0,0,0,43,27Zm-2,6H31V31H41Zm0,4H31V35H41Zm-3,4H31V39h7Z"/>
    <path class="cls-3" d="M67,27H53a2,2,0,0,0-2,2v3h0V43a2,2,0,0,0,2,2H67a2,2,0,0,0,2-2V29A2,2,0,0,0,67,27Zm0,8H59v8H57V35H53V33h4V29h2v4h8Z"/>
    <path class="cls-4" d="M91,27H77a2,2,0,0,0-2,2V43a2,2,0,0,0,2,2H91a2,2,0,0,0,2-2V29A2,2,0,0,0,91,27Zm0,13H77V32H91Z"/>
    <path class="cls-5" d="M107.3,32.6h0a3.71,3.71,0,0,0,.2-.9v-.2a1.56,1.56,0,0,0,0-1v-.1l-.1-.1h0a.1.1,0,0,1-.1.1,4.07,4.07,0,0,0,0,2.2Zm-3,6.9a2.19,2.19,0,0,0-.5.3,4.93,4.93,0,0,0-1.3,1.6h0c.6-.1,1.2-.7,1.8-1.9Zm9.2-1.5c-.1-.1-.5-.4-1.9-.4h-.2v.1a5.37,5.37,0,0,0,1.9.5h.3v-.1h0A.1.1,0,0,1,113.5,38ZM115,27H101a2,2,0,0,0-2,2V43a2,2,0,0,0,2,2h14a2,2,0,0,0,2-2V29A2,2,0,0,0,115,27Zm-1.1,11.8a2,2,0,0,1-.9.2,7.21,7.21,0,0,1-3-.7,16.47,16.47,0,0,0-4,.8c-.1,0-.1,0-.2.1-1.2,2.1-2.2,3.1-3,3.1-.2,0-.3,0-.4-.1l-.5-.3v-.1a.9.9,0,0,1-.1-.5,3.85,3.85,0,0,1,1.9-2.1c.2-.1.5-.3.9-.5.3-.5.6-1.1,1-1.8a21.16,21.16,0,0,0,1.1-2.9h0a4.64,4.64,0,0,1-.2-3.3c.1-.4.4-.8.8-.8h.2a1.42,1.42,0,0,1,.6.2c.7.7.4,2.3,0,3.6v.1a7.22,7.22,0,0,0,1.6,2.6,7,7,0,0,0,.9.6c.5,0,.9-.1,1.3-.1,1.2,0,2,.2,2.3.7a1.27,1.27,0,0,1,.1.6A6.13,6.13,0,0,1,113.9,38.8Zm-6.5-3.9a20.83,20.83,0,0,1-1,2.4c-.2.4-.4.7-.6,1.1h.2a15.13,15.13,0,0,1,3.3-.9,1.38,1.38,0,0,1-.4-.3A10.17,10.17,0,0,1,107.4,34.9Z"/>
    <path class="cls-6" d="M139,27H125a2,2,0,0,0-2,2V43a2,2,0,0,0,2,2h14a2,2,0,0,0,2-2V29A2,2,0,0,0,139,27ZM125,42l3.5-4.5,2.5,3L134.5,36l4.5,6Z"/>
    <path class="cls-7" d="M162,27v2h-2V27h-8v2h-2V27h-2V45h2V43h2v2h8V43h2v2h2V27ZM152,41h-2V39h2Zm0-4h-2V35h2Zm0-4h-2V31h2Zm10,8h-2V39h2Zm0-4h-2V35h2Zm0-4h-2V31h2Z"/>
    <path class="cls-8" d="M184,33h-3v5.5a2.5,2.5,0,1,1-1-2V31h4m3-4H173a2,2,0,0,0-2,2V43a2,2,0,0,0,2,2h14a2,2,0,0,0,2-2V29A2,2,0,0,0,187,27Z"/>
    <path class="cls-9" d="M206,41h-2V39h-2V37h2v2h2m0-6h-2v2h2v2h-2V35h-2V33h2V31h-2V29h2v2h2m5-4H197a2,2,0,0,0-2,2V43a2,2,0,0,0,2,2h14a2,2,0,0,0,2-2V29A2,2,0,0,0,211,27Z"/>
    <path class="cls-1" d="M235,27H221a2,2,0,0,0-2,2V43a2,2,0,0,0,2,2h14a2,2,0,0,0,2-2V29A2,2,0,0,0,235,27Zm-8.42,11.33-1.42,1.41L221.42,36l3.74-3.74,1.42,1.41L224.25,36Zm4.26,1.41-1.42-1.41L231.75,36l-2.33-2.33,1.42-1.41L234.58,36Z"/>
  </g>
</svg>
