<svg id="Layer_1" data-name="Layer 1" xmlns="http://www.w3.org/2000/svg" width="240" height="168" viewBox="0 0 240 168">
  <title>services-icons</title>
  <g id="slack">    
    <path d="M154.23,155.16l2.68-.89.86,2.57-2.68.89-.86-2.57m7.46,2.55a1.05,1.05,0,0,0,.65-1.31,1,1,0,0,0-1.31-.65l-1.3.43-.86-2.57,1.3-.44a1,1,0,0,0,.65-1.31,1,1,0,0,0-1.32-.65l-1.29.43-.45-1.34a1,1,0,0,0-1.31-.65,1,1,0,0,0-.65,1.31l.45,1.34-2.68.89-.45-1.34a1,1,0,0,0-1.31-.65,1,1,0,0,0-.65,1.3l.45,1.35-1.3.44a1.05,1.05,0,0,0-.65,1.31,1.07,1.07,0,0,0,1,.71l.36-.06,1.3-.43.86,2.57-1.3.44a1,1,0,0,0,.3,2l.37-.06,1.29-.43.45,1.34a1,1,0,0,0,.95.71l.36-.06a1,1,0,0,0,.65-1.31l-.45-1.34,2.68-.89.45,1.34a1,1,0,0,0,.95.7l.36-.05a1,1,0,0,0,.65-1.3l-.45-1.35,1.3-.44m3.48-4.46c2.06,6.87.45,9.85-6.42,11.92s-9.85.45-11.92-6.42-.45-9.85,6.42-11.92S163.1,146.38,165.17,153.25Z"/>
  </g>
  <g id="snapchat">    
    <path d="M132,164.45a4.07,4.07,0,0,1-2.53-1,3.61,3.61,0,0,0-1.39-.71,7.32,7.32,0,0,0-2.11.11.27.27,0,0,1-.29-.21c-.18-.75-.23-1-.36-1-1.32-.21-2.13-.51-2.29-.88s0-.33.15-.33a4.75,4.75,0,0,0,2.82-1.69,6,6,0,0,0,1-1.49,1,1,0,0,0,.1-.82c-.17-.41-.75-.59-1.38-.8-.34-.13-.89-.41-.82-.8s.43-.48.95-.44a2.24,2.24,0,0,0,.92.24.72.72,0,0,0,.52-.16,10.55,10.55,0,0,1,.19-4.16,5.09,5.09,0,0,1,9.12,0,10.55,10.55,0,0,1,.19,4.16.72.72,0,0,0,.52.16,2.24,2.24,0,0,0,.92-.24c.52,0,.89.16.95.44s-.48.67-.82.8c-.63.21-1.21.39-1.38.8a1,1,0,0,0,.1.82,6,6,0,0,0,1,1.49,4.75,4.75,0,0,0,2.82,1.69c.11,0,.18.1.15.33s-1,.67-2.29.88c-.13,0-.18.23-.36,1a.27.27,0,0,1-.29.21,7.32,7.32,0,0,0-2.11-.11,3.61,3.61,0,0,0-1.39.71A4.07,4.07,0,0,1,132,164.45Z"/>
  </g>
  <g id="qqchat">    
    <path d="M100.06,157.39a4.46,4.46,0,0,1,1.79-2.36,2.67,2.67,0,0,1,.35-1.53,1.16,1.16,0,0,1,.14-.69c.14-3.24,2.24-5.8,5.65-5.8s5.52,2.56,5.65,5.8a1.16,1.16,0,0,1,.14.69,2.67,2.67,0,0,1,.35,1.53,4.45,4.45,0,0,1,1.79,2.37c.67,1.58.78,3.1.24,3.37-.37.18-1-.27-1.5-1.06a4.47,4.47,0,0,1-1.52,2.33c.81.3,1.33.78,1.33,1.33,0,.9-1.42,1.63-3.17,1.63-1.58,0-2.87-.59-3.13-1.35h-.38c-.26.76-1.55,1.35-3.13,1.35-1.75,0-3.17-.73-3.17-1.63,0-.55.52-1,1.33-1.33a4.47,4.47,0,0,1-1.52-2.33c-.55.79-1.13,1.24-1.5,1.06C99.28,160.5,99.39,159,100.06,157.39Z"/>
  </g>
  <g id="line">    
    <path id="g7930" d="M89.75,147H78.29A3.27,3.27,0,0,0,75,150.26v11.46A3.27,3.27,0,0,0,78.26,165H89.72A3.27,3.27,0,0,0,93,161.74V150.28A3.27,3.27,0,0,0,89.75,147Zm-.62,11.48h0a21.16,21.16,0,0,1-5.15,3.8c-.7.29-.6-.19-.57-.35l.09-.56a1.35,1.35,0,0,0,0-.59c-.07-.18-.36-.28-.58-.32-3.15-.42-5.48-2.62-5.48-5.25,0-2.93,2.94-5.32,6.55-5.32s6.55,2.39,6.55,5.32A4.73,4.73,0,0,1,89.12,158.48Zm-6.48-4.69h-.46a.13.13,0,0,0-.13.13v2.86a.13.13,0,0,0,.13.13h.46a.13.13,0,0,0,.13-.13v-2.86a.13.13,0,0,0-.13-.13m3.16,0h-.46a.13.13,0,0,0-.13.13v1.7l-1.31-1.77h-.57a.13.13,0,0,0-.13.13v2.86a.13.13,0,0,0,.13.13h.46a.13.13,0,0,0,.13-.13v-1.7l1.31,1.77,0,0h.53a.13.13,0,0,0,.13-.13v-2.86a.13.13,0,0,0-.13-.13m-4.27,2.4H80.29v-2.27a.13.13,0,0,0-.13-.13H79.7a.13.13,0,0,0-.13.13v2.86h0a.13.13,0,0,0,0,.09h0a.13.13,0,0,0,.09,0h1.84a.13.13,0,0,0,.13-.13v-.46a.13.13,0,0,0-.13-.13m6.81-1.68a.13.13,0,0,0,.13-.13v-.46a.13.13,0,0,0-.13-.13H86.51a.13.13,0,0,0-.09,0h0a.13.13,0,0,0,0,.09h0v2.86h0a.13.13,0,0,0,0,.09h0a.13.13,0,0,0,.09,0h1.84a.13.13,0,0,0,.13-.13v-.46a.13.13,0,0,0-.13-.13H87.1v-.48h1.25a.13.13,0,0,0,.13-.13v-.46a.13.13,0,0,0-.13-.13H87.1v-.48Z"/>
  </g>
  <g id="wechat">    
    <path d="M57.5,148c-4.14,0-7.5,2.69-7.5,6a5.61,5.61,0,0,0,2.78,4.66L52,161l2.5-1.5a8.84,8.84,0,0,0,2.91.5,5.22,5.22,0,0,1-.41-2c0-3.31,3.13-6,7-6a3.44,3.44,0,0,1,.56,0c-1-2.34-3.78-4-7.06-4m-3,2.5a1,1,0,1,1-1,1,1,1,0,0,1,1-1m5,0a1,1,0,1,1-1,1,1,1,0,0,1,1-1M64,153c-3.31,0-6,2.24-6,5s2.69,5,6,5a7,7,0,0,0,1.91-.25L68,164l-.62-1.87A4.87,4.87,0,0,0,70,158c0-2.76-2.69-5-6-5m-2,2.5a1,1,0,1,1-1,1,1,1,0,0,1,1-1m4,0a1,1,0,1,1-1,1A1,1,0,0,1,66,155.5Z"/>
  </g>
  <g id="skype">    
    <path d="M42,150a8.43,8.43,0,0,1,2.36,7.55A4.94,4.94,0,0,1,45,160a5,5,0,0,1-5,5,4.94,4.94,0,0,1-2.45-.64,8.53,8.53,0,0,1-9.91-9.91A4.94,4.94,0,0,1,27,152a5,5,0,0,1,5-5,4.94,4.94,0,0,1,2.45.64A8.43,8.43,0,0,1,42,150m-6,11.16c2.87,0,4.3-1.38,4.3-3.24,0-1.19-.56-2.46-2.73-2.95l-2-.44c-.76-.17-1.62-.4-1.62-1.11s.6-1.22,1.7-1.22c2.23,0,2,1.53,3.13,1.53a1,1,0,0,0,1.08-.93c0-1.37-2.19-2.4-4.05-2.4s-4.16.86-4.16,3.14c0,1.1.39,2.27,2.55,2.81l2.69.68c.81.2,1,.65,1,1.07,0,.68-.68,1.35-1.91,1.35-2.41,0-2.08-1.85-3.37-1.85a1,1,0,0,0-1,1C31.67,159.68,33,161.16,36,161.16Z"/>
  </g>
  <g id="skype-outline">    
    <path d="M12,160.53c-2.66,0-3.85-1.31-3.85-2.29a.84.84,0,0,1,.88-.86c1.14,0,.85,1.62,3,1.62,1.09,0,1.7-.57,1.7-1.18,0-.36-.18-.76-.9-.94l-2.37-.59c-1.91-.48-2.26-1.51-2.26-2.48,0-2,1.9-2.78,3.68-2.78,1.62,0,3.58.91,3.58,2.12a.87.87,0,0,1-1,.82c-1,0-.8-1.35-2.76-1.35-1,0-1.51.44-1.51,1.07s.77.81,1.43,1l1.76.39c1.92.43,2.41,1.55,2.41,2.6,0,1.64-1.26,2.86-3.8,2.86M18,150a8.43,8.43,0,0,1,2.36,7.55A4.94,4.94,0,0,1,21,160a5,5,0,0,1-5,5,4.94,4.94,0,0,1-2.45-.64,8.53,8.53,0,0,1-9.91-9.91A4.94,4.94,0,0,1,3,152a5,5,0,0,1,5-5,4.94,4.94,0,0,1,2.45.64A8.43,8.43,0,0,1,18,150M8,149a3,3,0,0,0-2.2,5A6.5,6.5,0,0,0,14,162.2,3,3,0,0,0,18.2,158,6.5,6.5,0,0,0,10,149.8,3,3,0,0,0,8,149Z"/>
  </g>
  <g id="telegram">    
    <path d="M225.78,138.65l.28-4.23,7.68-6.92c.34-.31-.07-.46-.52-.19l-9.48,6-4.1-1.3c-.88-.25-.89-.86.2-1.3l16-6.16c.73-.33,1.43.18,1.15,1.3l-2.72,12.81c-.19.91-.74,1.13-1.5.71l-4.14-3.06-2,1.93A1.06,1.06,0,0,1,225.78,138.65Z"/>
  </g>
  <g id="viber">    
    <path d="M197.69,123a3.22,3.22,0,0,0-1.09.34,3.1,3.1,0,0,0-1.57,2.17c0,.19,0,.46,0,6.5v6.3l0,.2a3.08,3.08,0,0,0,2.41,2.41l.2,0h12.66l.2,0a3.08,3.08,0,0,0,2.41-2.41l0-.2V132c0-6,0-6.31,0-6.5a3.1,3.1,0,0,0-2.69-2.52c-.23,0-12.33,0-12.55,0Zm6.88,3.2a5.36,5.36,0,0,1,1.78.53,4.85,4.85,0,0,1,1.44,1,4.67,4.67,0,0,1,1,1.35,6.45,6.45,0,0,1,.63,2.64c0,.34,0,.41-.07.51a.36.36,0,0,1-.58-.05.94.94,0,0,1-.06-.4,7,7,0,0,0-.11-1,4.61,4.61,0,0,0-1.79-3,4.68,4.68,0,0,0-2.71-1c-.37,0-.43,0-.51-.1a.38.38,0,0,1,0-.54c.09-.08.15-.09.47-.08l.53,0Zm-4.4.21a1.29,1.29,0,0,1,.23.12,9.34,9.34,0,0,1,1.72,2.2,1.23,1.23,0,0,1,.19.85c-.06.22-.16.33-.62.7a3.41,3.41,0,0,0-.38.34.9.9,0,0,0-.13.43,3.23,3.23,0,0,0,.48,1.35,5.79,5.79,0,0,0,1,1.14,5.33,5.33,0,0,0,1.27.9c.56.28.91.35,1.16.23l.15-.08.33-.4c.31-.39.38-.46.6-.53a1,1,0,0,1,.83.08c.21.11.67.4,1,.6a14.33,14.33,0,0,1,1.35,1.1.88.88,0,0,1,.1.91,4.27,4.27,0,0,1-1.08,1.35,1.54,1.54,0,0,1-.93.38,1.35,1.35,0,0,1-.73-.15,15.27,15.27,0,0,1-6.57-5.06,14.34,14.34,0,0,1-2-3.71c-.27-.75-.28-1.07-.06-1.46a4.29,4.29,0,0,1,.8-.79,2.78,2.78,0,0,1,.91-.54,1,1,0,0,1,.48,0Zm4.53,1.19a3.72,3.72,0,0,1,2.67,1.6,3.83,3.83,0,0,1,.61,1.7,3.19,3.19,0,0,1,0,.72.44.44,0,0,1-.18.19.43.43,0,0,1-.32,0c-.15-.08-.19-.19-.19-.52a3.08,3.08,0,0,0-.35-1.43,2.93,2.93,0,0,0-1.07-1.12,3.66,3.66,0,0,0-1.48-.44.49.49,0,0,1-.36-.14.35.35,0,0,1,0-.43c.1-.16.25-.18.71-.11Zm.41,1.45a1.84,1.84,0,0,1,.92.46,1.9,1.9,0,0,1,.57,1.19c.05.34,0,.48-.09.59a.37.37,0,0,1-.45,0c-.09-.07-.12-.14-.14-.34a1.83,1.83,0,0,0-.15-.62,1.09,1.09,0,0,0-1-.61c-.24,0-.31-.06-.38-.15a.36.36,0,0,1,.11-.54c.07,0,.1,0,.27,0l.33,0Z"/>
  </g>
  <g id="whatsapp">    
    <path d="M184.75,134c.25.13.41.2.46.3a2,2,0,0,1-.21,1.18,2.44,2.44,0,0,1-1.7,1.12c-.46,0-.47.36-3-.73a10.24,10.24,0,0,1-4.11-3.92,4.85,4.85,0,0,1-.92-2.61,2.73,2.73,0,0,1,1-2,.75.75,0,0,1,.68-.26h.47c.15,0,.36-.06.55.45l.69,1.87a.46.46,0,0,1,0,.44l-.27.41-.39.42c-.12.12-.26.25-.12.5a7.42,7.42,0,0,0,1.32,1.78,6.61,6.61,0,0,0,1.95,1.3c.24.14.39.12.54,0l.81-.94c.19-.25.35-.19.58-.11l1.67.88M180,122a10,10,0,1,1-5.35,18.45L170,142l1.55-4.65A10,10,0,0,1,180,122m0,2a8,8,0,0,0-6.54,12.61l-1,2.89,2.89-1A8,8,0,1,0,180,124Z"/>
  </g>
  <g id="facebook-messenger">    
    <path d="M156,122c-5.5,0-10,4.14-10,9.25a9,9,0,0,0,3.65,7.15l.06,3.6,3.45-1.88h0a10.81,10.81,0,0,0,2.87.39c5.5,0,10-4.14,10-9.25S161.5,122,156,122m1,12.41-2.49-2.63-5,2.63,5.38-5.63,2.58,2.47,4.85-2.47Z"/>
  </g>
  <g id="wordpress">    
    <path d="M132.2,135.5l-2.55,6.22A10.08,10.08,0,0,0,132,142a9.83,9.83,0,0,0,2.44-.3m6.17-14.64a6.4,6.4,0,0,1-.22,3.19c-1,3.12-3.39,8.75-4.29,10.88a9.89,9.89,0,0,0,5.9-9,9.7,9.7,0,0,0-1.39-5m-16.3,1.58s-.49-.64-1-.64h-.53a10.37,10.37,0,0,0-.78,4,9.86,9.86,0,0,0,6.12,9.11m-5-14A10,10,0,0,1,132,122a10.13,10.13,0,0,1,6.53,2.56,2.3,2.3,0,0,0-1.6.33,2.24,2.24,0,0,0,0,3.87,3.91,3.91,0,0,1,1.38,3.28c0,1-2.42,5.57-2.42,5.57l-2.35-8s-.06-.56-.06-.72a1,1,0,0,1,.19-.6c.09-.09.22-.31.37-.31h1.11v-.86h-6V128h.19c.2,0,.39.29.57.47a9.45,9.45,0,0,1,.83,2l.87,2.87-1.88,4.33L127.63,129s.06-.6.19-.7.18-.27.35-.27h.05v-.86Z"/>
  </g>
  <g id="drupal">    
    <path d="M116.47,134.65a5.66,5.66,0,0,1-.64,2.45c-.43.75-.75,1-1.39,1s-2.13-2.24-3.08-2.34c-1.18,0-3.63,2.45-5.65,2.45a3.1,3.1,0,0,1-1.92-.43,2.08,2.08,0,0,1-.85-1.92,3.19,3.19,0,0,1,3.3-3c2.35,0,3.94,2.34,5.12,2.24.95,0,2.87-1.92,3.83-1.92,1-.21,1.28.84,1.28,1.49m-3.84-9.37c-1.06-.64-2-1-3.09-1.6a14.69,14.69,0,0,1-2.23-2.24c-.31,1.39-.53,1.92-1.07,2.35a13.69,13.69,0,0,1-2.55,1.49A8.89,8.89,0,0,0,108.05,142a8.67,8.67,0,0,0,8.95-8.73A8.86,8.86,0,0,0,112.63,125.28Z"/>
  </g>
  <g id="stackoverflow">    
    <path d="M89.36,140.2v-5.38h1.79V142H75v-7.18h1.8v5.38H89.36m-10.59-5.88.37-1.76,8.79,1.85-.37,1.76-8.79-1.85m1.16-4.21.76-1.61,8.14,3.78-.76,1.62-8.14-3.79m2.26-4,1.15-1.38,6.9,5.76-1.15,1.37-6.9-5.75m4.45-4.25L92,129.08l-1.44,1.07-5.36-7.21,1.44-1.07m-8.05,16.54v-1.8h9v1.8Z"/>
  </g>
  <g id="stackexchange">    
    <path d="M52,134v-3H68v3H52m0-4v-3H68v3H52m13.46-8A2.59,2.59,0,0,1,68,124.63V126H52v-1.37A2.59,2.59,0,0,1,54.54,122H65.46M52,135H68v1.35A2.6,2.6,0,0,1,65.46,139h-1L61,142v-3H54.54A2.6,2.6,0,0,1,52,136.35Z"/>
  </g>
  <g id="bitbucket">    
    <path d="M36,125.76c3.06,0,5.55-.52,5.55-1.17s-2.48-1.18-5.55-1.19-5.55.52-5.55,1.17,2.48,1.19,5.55,1.19m0,8.64a2.76,2.76,0,1,0-2.75-2.76A2.77,2.77,0,0,0,36,134.4M36,122c4.77,0,8.66,1.28,8.66,2.87,0,.42-1,6.44-1.45,8.82-.18,1.07-2.95,2.64-7.21,2.64v0c-4.26,0-7-1.57-7.21-2.64-.41-2.38-1.45-8.4-1.45-8.82,0-1.59,3.89-2.87,8.66-2.87m6.23,14.08a.31.31,0,0,1,.3.34v.08l-.62,3.21C41.62,141,39.07,142,36,142h0c-3.07,0-5.62-1-5.91-2.29l-.62-3.21v-.08a.31.31,0,0,1,.3-.34.35.35,0,0,1,.23.09,10.19,10.19,0,0,0,6,1.69,10.19,10.19,0,0,0,6-1.69.35.35,0,0,1,.23-.09m-4.85-4.44a1.38,1.38,0,0,1-2.76,0A1.38,1.38,0,0,1,36,130.26h0a1.38,1.38,0,0,1,1.38,1.38Z"/>
  </g>
  <g id="github-box">    
    <path d="M19,123H5a2,2,0,0,0-2,2v14a2,2,0,0,0,2,2H9.43c.32-.07.32-.68.32-.9v-1.52c-2.49.54-3-1.21-3-1.21a2.38,2.38,0,0,0-1-1.32c-.79-.56.09-.54.09-.54a1.89,1.89,0,0,1,1.38.93,1.93,1.93,0,0,0,2.62.75,1.94,1.94,0,0,1,.57-1.21c-2-.22-4.1-1-4.1-4.43a3.49,3.49,0,0,1,.93-2.44,3.22,3.22,0,0,1,.09-2.38s.76-.24,2.47.92a8.67,8.67,0,0,1,4.5,0c1.72-1.16,2.47-.92,2.47-.92a3.22,3.22,0,0,1,.09,2.38,3.49,3.49,0,0,1,.93,2.44c0,3.44-2.11,4.19-4.11,4.42a2.15,2.15,0,0,1,.62,1.66v2.47c0,.22,0,.83.32.9H19a2,2,0,0,0,2-2V125A2,2,0,0,0,19,123Z"/>
  </g>
  <g id="trello">    
    <path d="M234.75,99h-13.5a2.25,2.25,0,0,0-2.25,2.25v13.5a2.25,2.25,0,0,0,2.25,2.25h13.5a2.25,2.25,0,0,0,2.25-2.25v-13.5A2.25,2.25,0,0,0,234.75,99Zm-7.92,13.63a1.08,1.08,0,0,1-1.08,1.08h-3.33a1.08,1.08,0,0,1-1.08-1.08V102.42a1.08,1.08,0,0,1,1.08-1.08h3.33a1.08,1.08,0,0,1,1.08,1.08Zm7.83-4.5a1.08,1.08,0,0,1-1.08,1.08h-3.33a1.08,1.08,0,0,1-1.08-1.08v-5.72a1.08,1.08,0,0,1,1.08-1.08h3.33a1.08,1.08,0,0,1,1.08,1.08Z"/>
  </g>
  <g id="spotify">    
    <path d="M209.9,106.9c-3.2-1.9-8.55-2.1-11.6-1.15a.92.92,0,0,1-.55-1.75c3.55-1.05,9.4-.85,13.1,1.35a1,1,0,0,1,.35,1.3,1,1,0,0,1-1.3.25m-.1,2.8a.75.75,0,0,1-1,.25,13,13,0,0,0-9.95-1.15.76.76,0,1,1-.45-1.45,14.63,14.63,0,0,1,11.25,1.35.71.71,0,0,1,.2,1m-1.2,2.75a.59.59,0,0,1-.85.2c-2.35-1.45-5.3-1.75-8.8-.95a.62.62,0,1,1-.3-1.2c3.8-.85,7.1-.5,9.7,1.1a.6.6,0,0,1,.25.85M204,98a10,10,0,1,0,10,10A10,10,0,0,0,204,98Z"/>
  </g>
  <g id="soundcloud">    
    <path d="M179.6,105.19v7.39h8a2.33,2.33,0,0,0,2.44-2.43,2.37,2.37,0,0,0-2.38-2.43,2.31,2.31,0,0,0-.94.2,4.25,4.25,0,0,0-4.25-3.79,4.34,4.34,0,0,0-2.83,1.05m-.8.93a2.76,2.76,0,0,0-.88-.35v6.82h1.26v-7a4.26,4.26,0,0,0-.38.5m-2.14-.49v7h.84v-6.93a3.35,3.35,0,0,0-.53,0h-.31m-1.66.59v6.36h.83V105.8a3.22,3.22,0,0,0-.83.42m-1.52,2.27c-.05,0-.11-.05-.17-.08v4.17h.84V107a3.51,3.51,0,0,0-.66,1.49m-1.85-.25v4.26a2.37,2.37,0,0,0,.65.08h.2v-4.42l-.2,0a2.35,2.35,0,0,0-.65.09M170,110.36a2.21,2.21,0,0,0,.79,1.69v-3.37A2.19,2.19,0,0,0,170,110.36Z"/>
  </g>
  <g id="lastfm">    
    <path d="M162,113.93c-2.08,0-3.19-1-4-2.84l-.22-.49-1.9-4.37a4.27,4.27,0,0,0-4-2.59A4.36,4.36,0,1,0,155.8,110l.77,1.81A5.89,5.89,0,0,1,152,114a6,6,0,0,1,0-12,5.81,5.81,0,0,1,5.51,3.7c.07.19,1.07,2.54,1.95,4.54.54,1.26,1,2.07,2.49,2.12a2.16,2.16,0,0,0,2.48-2c0-1.11-.77-1.37-2.07-1.81-2.32-.77-3.53-1.56-3.53-3.41a2.91,2.91,0,0,1,3.21-3,3.09,3.09,0,0,1,2.89,1.74l-1.27.64a2,2,0,0,0-1.68-.93,1.53,1.53,0,0,0-1.61,1.53c0,1.24,1.1,1.43,2.64,1.93,2.07.68,3,1.47,3,3.39S164.27,113.93,162,113.93Z"/>
  </g>
  <g id="google-photos">    
    <path d="M141.79,108h-4.58v-5.21l-4.85-4.73a.2.2,0,0,0-.15-.06.21.21,0,0,0-.21.21v4.58h-5.21l-4.73,4.85a.2.2,0,0,0-.06.15.21.21,0,0,0,.21.21h4.58v5.21l4.85,4.73a.2.2,0,0,0,.15.06.21.21,0,0,0,.21-.21v-4.58h5.21l4.73-4.85a.2.2,0,0,0,.06-.15A.21.21,0,0,0,141.79,108Zm-9.17.63-.62,1.46-.62-1.46-1.46-.62,1.46-.62.63-1.46.63,1.46,1.46.63Z"/>
  </g>
  <g id="flickr">    
    <path d="M115,99H101a2,2,0,0,0-2,2v14a2,2,0,0,0,2,2h14a2,2,0,0,0,2-2V101A2,2,0,0,0,115,99Zm-11,12.15A3.15,3.15,0,1,1,107.1,108,3.15,3.15,0,0,1,104,111.15Zm8.1,0A3.15,3.15,0,1,1,115.2,108,3.15,3.15,0,0,1,112,111.15Z"/>
  </g>
  <g id="swarm">    
    <path d="M82.42,113.42a8.44,8.44,0,0,1-.72-3.19,24,24,0,0,0-1.63,3.07s0,.07,0,.12c-.12.32-.25.57-.32.79a.49.49,0,0,0,.3.64l.79.3.12,0a22.5,22.5,0,0,0,3.34.84,8.48,8.48,0,0,1-1.83-2.62m1.73-8.14c-2.52-5.17-8.16-5-9.05-2.67-.69,1.78,2.3,6,9.18,2.94h0a2.92,2.92,0,0,1-.12-.27m1.19-.35c-1.41-3.49,1.06-5.49,2.4-5,1,.4,1.56,3.39-2.33,5.12h0a.42.42,0,0,0-.07-.15m7.22,3.93a5.08,5.08,0,0,0-2.92-2.72,1,1,0,0,0-.4-.07,1.38,1.38,0,0,0-1.34,1.21,6.83,6.83,0,0,0,.62,3.39,7.25,7.25,0,0,0,2.05,2.7,1.31,1.31,0,0,0,.79.25,1.29,1.29,0,0,0,1.21-.74,4.92,4.92,0,0,0,0-4m-2.94,5.81a8.87,8.87,0,0,1-3.29-7.49,2.65,2.65,0,0,1,.32-1.09l-.1,0h0s-.12,0-.17,0a5.07,5.07,0,0,0-1.06.45l-.49.3a3.74,3.74,0,0,0-1.63,2.6,6.88,6.88,0,0,0,.57,3.34,6.79,6.79,0,0,0,2,2.6,3.8,3.8,0,0,0,2.2.67,4.84,4.84,0,0,0,2.45-.77,0,0,0,0,0,0,0l.15-.1s0,0,.07,0a2.89,2.89,0,0,1-1-.49"/>
  </g>
  <g id="foursquare">    
    <path d="M65,101l-.43,2.5a.78.78,0,0,1-.66.5H60c-.47,0-1.05.32-1.05.79v.41c0,.47.58.8,1.05.8h3.28a.63.63,0,0,1,.58.71c-.07.36-.92,2.57-1,2.79a.7.7,0,0,1-.65.5H59.37a1,1,0,0,0-1,.5c-.34.44-3.07,3.6-3.07,3.6S55,114,55,114V101c0-.3.61-1,1-1h8.5c.32,0,.58.61.5,1m0,9.45c.11-.48,1.78-7.73,2.22-9.9M65.58,98H54.91A1.77,1.77,0,0,0,53,99.8v17a1.14,1.14,0,0,0,.66,1.17,1.2,1.2,0,0,0,1.28-.27s4.71-5.44,4.8-5.53.13-.13.26-.13h3.26A1.68,1.68,0,0,0,65,110.45c.11-.48,1.78-7.73,2.22-9.9C67.56,98.89,67.14,98,65.58,98Z"/>
  </g>
  <g id="disqus">    
    <path d="M36.08,118a9.84,9.84,0,0,1-6.42-2.37l-4.25.58L27,112.15a10.35,10.35,0,0,1-.89-4.15,9.92,9.92,0,1,1,9.92,10m5.42-10v0c0-2.88-2-4.94-5.55-4.94H32.16v10H35.9c3.53,0,5.6-2.14,5.6-5M36,110.54H34.89v-5.08H36A2.43,2.43,0,0,1,38.7,108h0A2.42,2.42,0,0,1,36,110.54Z"/>
  </g>
  <g id="disqus-outline">    
    <path d="M11.9,110.5H10.8v-5h1.1a2.51,2.51,0,1,1,0,5m0-7.5H8.1v10h3.7c3.5,0,5.6-2.1,5.6-5h0c0-2.9-2-5-5.5-5m.1,13a7.84,7.84,0,0,1-5.1-1.9l-.7-.6-1.7.2.7-1.6-.3-.8a8.11,8.11,0,0,1,7.2-11.4A8.05,8.05,0,0,1,12,116m0-18a10,10,0,0,0-9,14.2l-1.6,4.1,4.3-.6a9.74,9.74,0,0,0,6.4,2.4,9.94,9.94,0,0,0,9.9-10A10.12,10.12,0,0,0,12,98Z"/>
  </g>
  <g id="evernote">    
    <path d="M231.09,83.63s.19-1.28.91-1.28,1.78,1.71,1.78,1.71-2.32-.43-2.69-.43M235,76.69a5,5,0,0,0-3.11-1.28H229.5A3.08,3.08,0,0,0,226.88,74c-1.83,0-1.71.81-1.71,1.5v2.82l-.83.87H220.5a2.78,2.78,0,0,0-1.06,2.25c0,1.56.48,6.91,3.69,7.41,3.8.58,4.45-1.18,4.45-1.39,0-.9,0-2.25,0-2.25s1.11,2.12,2.79,2.12,2.65,1,2.65,2v1.84s0,1.15-1,1.15h-2.11A1.86,1.86,0,0,1,229.2,91c0-.75.33-1,.73-1a6.7,6.7,0,0,1,.72,0V88.53s-3.18,0-3.18,2.41a2.77,2.77,0,0,0,3,3.06h2.17s3.93-.5,3.93-8.25-1.23-8.47-1.56-9.06m-11.5,1.62h-3.24l4.06-4.09V77.5Z"/>
  </g>
  <g id="livejournal">    
    <path d="M204,74.06a10,10,0,0,0-4,.82l-2.19-2.19h0a10,10,0,0,0-5.17,5.2l2.19,2.19a10,10,0,0,1,5.17-5.2h0l8.11,8.1h0a10,10,0,0,0-5.17,5.2l-8.11-8.09h0a9.85,9.85,0,0,0-.84,4,10,10,0,1,0,10-10Zm1.73,14.7a5.82,5.82,0,0,1,3-3l.79,3.8Z"/>
  </g>
  <g id="delicious-box">    
    <path d="M187,75H173a2,2,0,0,0-2,2V91a2,2,0,0,0,2,2h14a2,2,0,0,0,2-2V77A2,2,0,0,0,187,75Zm0,16h-7V84h-7V77h7v7h7Z"/>
  </g>
  <g id="delicious">    
    <path d="M147,84h9v9h-9Zm9-9h9v9h-9Z"/>
  </g>
  <g id="digg">    
    <path d="M133.49,85.49h-.9V82.81h.9Zm-7.47,0h.9V82.81H126ZM141,77V91a2,2,0,0,1-2,2H125a2,2,0,0,1-2-2V77a2,2,0,0,1,2-2h14A2,2,0,0,1,141,77Zm-12.58,2.52h-1.49v2.09h-2.39v5.08h3.88Zm2.09,2.09H129v5.08h1.49Zm0-2.09H129V81h1.49ZM135,81.61H131.1v5.08h2.39v.6H131.1v1.19H135Zm4.48,0h-3.88v5.08H138v.6h-2.39v1.19h3.88ZM138,82.81h-.9v2.69h.9Z"/>
  </g>
  <g id="twitch">    
    <path d="M100.8,75H117V85.8l-4.5,4.5h-3.6L106.2,93h-2.7V90.3H99V78.6l1.8-3.6m14.4,9.9V76.8H102.6V87.6h2.7v2.7l2.7-2.7h4.5l2.7-2.7m-4.5-5.4h1.8V84h-1.8V79.5m-2.7,0V84h-1.8V79.5Z"/>
  </g>
  <g id="wunderlist">    
    <path d="M89,89.5,84,87l-5,2.5V77H77V91H91V77H89V89.5m-5-5.08,2.25,1.35-.6-2.55,2-1.72L85,81.27l-1-2.41-1,2.41-2.64.23,2,1.72-.6,2.55L84,84.42M77,75H91a2,2,0,0,1,2,2V91a2,2,0,0,1-2,2H77a2,2,0,0,1-2-2V77A2,2,0,0,1,77,75Z"/>
  </g>
  <g id="reddit">    
    <path d="M69,82.67a2.23,2.23,0,0,0-2.25-2.25,2,2,0,0,0-1.44.54,10.29,10.29,0,0,0-4.86-1.44l1-3.6,3.06.9A1.8,1.8,0,1,0,66.3,75a1.74,1.74,0,0,0-1.53.9l-3.6-.9c-.27-.09-.45.09-.54.36l-1.08,4.14A10.61,10.61,0,0,0,54.69,81a2,2,0,0,0-1.44-.54A2.27,2.27,0,0,0,52,84.56l-.09.81c0,3.24,3.6,5.85,8.1,5.85s8.1-2.61,8.1-5.85L68,84.56a2.23,2.23,0,0,0,1-1.89m-11.7.27a1.08,1.08,0,0,1,0,2.16,1.08,1.08,0,0,1,0-2.16m6.12,4.86a8.25,8.25,0,0,1-6.84,0,.45.45,0,0,1,.54-.72c1.08.81,4.68.81,5.76,0a.45.45,0,0,1,.54.72m-.72-2.7A1.08,1.08,0,1,1,63.78,84,1,1,0,0,1,62.7,85.1Z"/>
  </g>
  <g id="pocket">    
    <path d="M45,84a9,9,0,0,1-18,0V77.25A2.25,2.25,0,0,1,29.25,75h13.5A2.25,2.25,0,0,1,45,77.25V84m-5.51-3.37L36,84.12l-3.49-3.5a1.35,1.35,0,0,0-1.91,1.91L35,87A1.37,1.37,0,0,0,37,87l4.45-4.45a1.35,1.35,0,1,0-1.91-1.91Z"/>
  </g>
  <g id="medium">    
    <path d="M21.93,78.62l-6,9.85-4.32-7L15,75.84a.71.71,0,0,1,.78-.29l6.15,3.07M22,91.78c0,.57-.5.79-1.11.48l-4.71-2.35L22,80.41V91.78M9,91.94a.59.59,0,0,1-.93.56L2.55,89.76a1.13,1.13,0,0,1-.55-.9V76.14c0-.45.33-.64.74-.46l6,3,.3.46V91.94m6.29-2.48L10,86.81v-6Z"/>
  </g>
  <g id="dribble-box">    
    <path d="M221,50.95h14a2,2,0,0,1,2,2v14a2,2,0,0,1-2,2H221a2,2,0,0,1-2-2v-14a2,2,0,0,1,2-2m10.09,13.5a27.32,27.32,0,0,0-1-3.68l1.12-.08h0a9.44,9.44,0,0,1,2.14.26,5.49,5.49,0,0,1-2.27,3.5m-3.09,1a5.43,5.43,0,0,1-3.24-1.07A8,8,0,0,1,226,62.78a7.62,7.62,0,0,1,2.86-1.72,26.54,26.54,0,0,1,1.08,4,5.48,5.48,0,0,1-1.94.36m-5.46-5.46v-.08h.6a17.07,17.07,0,0,0,5-.71l.31.72a8.62,8.62,0,0,0-3.07,1.82,9.91,9.91,0,0,0-1.51,1.74,5.38,5.38,0,0,1-1.29-3.5m3.05-4.89a16.64,16.64,0,0,1,1.95,3,15.8,15.8,0,0,1-4.32.6h-.52a5.47,5.47,0,0,1,2.89-3.57m2.41-.57a5.5,5.5,0,0,1,3.41,1.2,7.15,7.15,0,0,1-2.69,1.92,19.89,19.89,0,0,0-1.88-3,5.5,5.5,0,0,1,1.16-.13m4.29,2.09a5.41,5.41,0,0,1,1.16,3.11,11.23,11.23,0,0,0-2.23-.24h0a9,9,0,0,0-1.59.13l-.36-.85a8.48,8.48,0,0,0,3-2.15M228,52.95a7,7,0,1,0,7,7A7,7,0,0,0,228,52.95Z"/>
  </g>
  <g id="dribble">    
    <path d="M208.42,66.37c-.42-1.92-.92-3.69-1.42-5.25a11.09,11.09,0,0,1,1.58-.11h0a14,14,0,0,1,3.06.37,7.79,7.79,0,0,1-3.24,5M204,67.75a7.72,7.72,0,0,1-4.64-1.54A11.36,11.36,0,0,1,201.18,64a10.66,10.66,0,0,1,4-2.46,39.31,39.31,0,0,1,1.54,5.71,7.62,7.62,0,0,1-2.77.51m-7.8-7.8v-.11h.86a24.75,24.75,0,0,0,7.08-1c.15.33.3.67.45,1a12.52,12.52,0,0,0-4.4,2.58,14.68,14.68,0,0,0-2.15,2.5,7.7,7.7,0,0,1-1.84-5m4.35-7a24.3,24.3,0,0,1,2.79,4.25,22.19,22.19,0,0,1-6.16.87h-.75a7.8,7.8,0,0,1,4.12-5.11m3.45-.8a7.73,7.73,0,0,1,4.86,1.71A10.21,10.21,0,0,1,205,56.6a29.66,29.66,0,0,0-2.69-4.27,8.27,8.27,0,0,1,1.66-.18m6.13,3a7.82,7.82,0,0,1,1.66,4.45,15.32,15.32,0,0,0-3.19-.35h0a13.5,13.5,0,0,0-2.26.19c-.17-.42-.33-.82-.52-1.21a12.15,12.15,0,0,0,4.32-3.08M204,49.95a10,10,0,1,0,10,10A10,10,0,0,0,204,49.95Z"/>
  </g>
  <g id="blogger">    
    <path d="M177.26,57.3a.9.9,0,0,1,.9-.9h2.34a.9.9,0,0,1,0,1.8h-2.34A.9.9,0,0,1,177.26,57.3ZM189,53V67a2,2,0,0,1-2,2H173a2,2,0,0,1-2-2V53a2,2,0,0,1,2-2h14A2,2,0,0,1,189,53Zm-3.6,7a.9.9,0,0,0-.9-.9.9.9,0,0,1-.9-.9V56.4a2.7,2.7,0,0,0-2.7-2.7h-3.6a2.7,2.7,0,0,0-2.7,2.7v6.3a2.7,2.7,0,0,0,2.7,2.7h5.4a2.7,2.7,0,0,0,2.7-2.7Zm-3.6.9h-3.64a.9.9,0,0,0,0,1.8h3.64a.9.9,0,0,0,0-1.8Z"/>
  </g>
  <g id="behance">    
    <path d="M163.58,60.27a1.94,1.94,0,0,0-.62-1.41,2,2,0,0,0-1.38-.48,1.84,1.84,0,0,0-1.39.51,2.39,2.39,0,0,0-.62,1.38m6.35-.23a10.65,10.65,0,0,1,.08,1.77h-6.5a2.16,2.16,0,0,0,.94,1.88,2.3,2.3,0,0,0,1.29.34,1.88,1.88,0,0,0,1.27-.41,1.75,1.75,0,0,0,.5-.62h2.38a2.83,2.83,0,0,1-.88,1.62,4.23,4.23,0,0,1-3.34,1.3,5,5,0,0,1-3.16-1.1,4.4,4.4,0,0,1-1.34-3.57,4.77,4.77,0,0,1,1.23-3.55,4.28,4.28,0,0,1,3.19-1.24,5,5,0,0,1,2.09.42,3.56,3.56,0,0,1,1.54,1.32,4.32,4.32,0,0,1,.71,1.84m-12.34,2a1.35,1.35,0,0,0-.79-1.34,3.71,3.71,0,0,0-1.25-.23h-2.67v3.34h2.63a2.88,2.88,0,0,0,1.26-.22,1.56,1.56,0,0,0,.82-1.55m-4.71-3.61h2.63a2.43,2.43,0,0,0,1.32-.31,1.16,1.16,0,0,0,.5-1.09,1.14,1.14,0,0,0-.66-1.15,4.73,4.73,0,0,0-1.47-.19h-2.32m6.85,4.7a3.31,3.31,0,0,1,.48,1.82,3.78,3.78,0,0,1-.55,2,3.39,3.39,0,0,1-2.29,1.6,8.73,8.73,0,0,1-1.75.17H146V53.55h6a3.78,3.78,0,0,1,3.23,1.33,3.17,3.17,0,0,1,.57,1.9,2.78,2.78,0,0,1-.57,1.83,3.06,3.06,0,0,1-.95.71,2.83,2.83,0,0,1,1.44,1.1m8.34-5.1h-5V54.07h5Z"/>
  </g>
  <g id="periscope">    
    <path d="M135.33,58.48a3.33,3.33,0,1,1-6-1.95,1.34,1.34,0,1,0,1.93-1.29,3.32,3.32,0,0,1,4.09,3.24ZM141,53V67a2,2,0,0,1-2,2H125a2,2,0,0,1-2-2V53a2,2,0,0,1,2-2h14A2,2,0,0,1,141,53Zm-3.52,5.46a5.48,5.48,0,0,0-11,0c0,4.08,4.38,8.56,5.48,8.56S137.48,62.54,137.48,58.46Z"/>
  </g>
  <g id="vine">    
    <path d="M115.89,59.95a5.57,5.57,0,0,1-1.32.15c-2.27,0-4-1.6-4-4.34,0-1.35.53-2.06,1.27-2.06s1.18.63,1.18,1.91a7.5,7.5,0,0,1-.35,2,2.35,2.35,0,0,0,2.61.85,7.88,7.88,0,0,0,.63-3.1c0-2.76-1.39-4.36-4-4.36s-4.2,2-4.2,4.72a6.51,6.51,0,0,0,3.29,6,17.34,17.34,0,0,1-3.1,4.39c-2.08-2.51-4-5.86-4.73-12.4h-3.06c1.42,10.89,5.63,14.35,6.75,15a1.57,1.57,0,0,0,1.75,0,18.45,18.45,0,0,0,5.13-6.41,10.85,10.85,0,0,0,2.15-.25Z"/>
  </g>
  <g id="vimeo">    
    <path d="M94,55.42q-.14,2.92-4.08,8C87.2,67,84.9,68.75,83,68.75c-1.15,0-2.14-1.08-2.95-3.25-.55-2-1.05-3.94-1.61-5.92-.6-2.16-1.24-3.24-1.94-3.24a6.57,6.57,0,0,0-1.56.95L74,56.07c1-.87,2-1.74,2.92-2.61a6.66,6.66,0,0,1,3-1.8c1.56-.16,2.52.92,2.88,3.2.39,2.47.66,4,.81,4.6.43,2,.93,3,1.48,3s1.05-.64,1.89-2a7.75,7.75,0,0,0,1.35-3q.18-1.71-1.35-1.71a3.72,3.72,0,0,0-1.48.33q1.47-4.85,5.63-4.71Q94.18,51.5,94,55.42Z"/>
  </g>
  <g id="youtube">    
    <path d="M69.8,56a4.33,4.33,0,0,0-.8-2,2.86,2.86,0,0,0-2-.85c-2.8-.2-7-.2-7-.2h0s-4.2,0-7,.2A2.86,2.86,0,0,0,51,54a4.33,4.33,0,0,0-.79,2,30.25,30.25,0,0,0-.2,3.24v1.52A30.25,30.25,0,0,0,50.2,64,4.33,4.33,0,0,0,51,66a3.39,3.39,0,0,0,2.21.85c1.6.15,6.8.2,6.8.2s4.2,0,7-.21A2.86,2.86,0,0,0,69,66a4.33,4.33,0,0,0,.8-2,30.29,30.29,0,0,0,.2-3.24V59.24A30.29,30.29,0,0,0,69.8,56ZM57.93,62.6V57l5.4,2.82Z"/>
  </g>
  <g id="renren">    
    <path d="M43,51H29a2,2,0,0,0-2,2V67a2,2,0,0,0,2,2H43a2,2,0,0,0,2-2V53A2,2,0,0,0,43,51ZM29.92,63.72c-.11.07-.15,0-.21-.05a7.32,7.32,0,0,1,4.11-10.75l.46-.13c.11,0,.13,0,.13.1,0,.65,0,1.3,0,2A18.68,18.68,0,0,1,34.35,57a8.61,8.61,0,0,1-1.17,3.43A10.1,10.1,0,0,1,29.92,63.72Zm2.36,2.48A11.29,11.29,0,0,0,36,62.48a11.28,11.28,0,0,0,3.72,3.72A7.27,7.27,0,0,1,32.28,66.2Zm10.88-4.77a7.43,7.43,0,0,1-.87,2.23c-.07.11-.11.12-.22,0a10.52,10.52,0,0,1-2-1.58,8.65,8.65,0,0,1-2.38-4.7,15.74,15.74,0,0,1-.12-2.49c0-.75,0-1.39,0-2,0-.12,0-.15.14-.12a7.26,7.26,0,0,1,3.75,2.28,7.18,7.18,0,0,1,1.74,3.76A6.9,6.9,0,0,1,43.16,61.43Z"/>
  </g>
  <g id="tumblr">    
    <path d="M19,51H5a2,2,0,0,0-2,2V67a2,2,0,0,0,2,2H19a2,2,0,0,0,2-2V53A2,2,0,0,0,19,51Zm-3.4,8.1H12.9v3.51c0,.66.13,1,1,1H15.6v2.7s-.93.09-1.89.09c-2.39,0-3.51-1.44-3.51-3.06V59.1H8.4V56.58c2.17-.18,2.36-1.84,2.52-2.88h2v2.7h2.7Z"/>
  </g>
  <g id="qzone">    
    <path d="M238,33.73a.41.41,0,0,0-.35-.28l-6.43-.6-2.79-6.15a.42.42,0,0,0-.77,0l-2.88,6-6.39.73a.41.41,0,0,0-.36.28.4.4,0,0,0,.13.43l4.72,4.33L221.71,45a.4.4,0,0,0,.16.42.42.42,0,0,0,.46,0l5.74-3.3,5.66,3.34a.54.54,0,0,0,.45-.06.4.4,0,0,0,.17-.41l-.85-4.84a3.93,3.93,0,0,0,1.24-.8,5.87,5.87,0,0,1-1.35.39h0c-3.8.73-9.63.11-9.83.1l6.4-4.68a73.7,73.7,0,0,0-7.5-.57h0c.26,0,6.82-1.12,10.63,0l-6.44,4.52a52.67,52.67,0,0,0,6.72.28l-.12-.91,4.67-4.33A.49.49,0,0,0,238,33.73Z"/>
  </g>
  <g id="sina-weibo">    
    <path d="M208.71,36.07c-.28-.08-.47-.14-.32-.51a2.12,2.12,0,0,0,0-2c-.64-.92-2.38-.87-4.37,0,0,0-.63.28-.47-.23a2.32,2.32,0,0,0-.22-2.33c-1.08-1.1-4,0-6.43,2.55-1.85,1.88-2.92,3.87-2.92,5.6,0,3.3,4.15,5.5,8.22,5.5,5.33,0,8.87-3.35,8.87-5.85A3,3,0,0,0,208.71,36.07Zm-6.48,7.1c-3.24.32-6-1.15-6.25-3.29s2.25-4.14,5.49-4.46,6,1.15,6.25,3.29S205.47,42.84,202.23,43.17ZM214,33.38a6,6,0,0,0-6-6,.7.7,0,1,0,0,1.41,4.62,4.62,0,0,1,4.62,4.62.7.7,0,0,0,1.41,0Zm-2.8-.1a4,4,0,0,0-3.13-3.13.7.7,0,0,0-.28,1.38,2.62,2.62,0,0,1,2,2,.7.7,0,0,0,1.38-.28Zm-10.64,4.23a2.24,2.24,0,0,0-2,2.45,2.45,2.45,0,1,0,2-2.45Z"/>
  </g>
  <g id="xing-box">    
    <path d="M172.8,27a1.79,1.79,0,0,0-1.8,1.8V43.2a1.79,1.79,0,0,0,1.8,1.8h14.4a1.79,1.79,0,0,0,1.8-1.8V28.8a1.79,1.79,0,0,0-1.8-1.8m-3.13,2h2a.26.26,0,0,1,.26.13.29.29,0,0,1,0,.31l-4.47,7.92,2.85,5.2a.29.29,0,0,1-.25.44h-2a.62.62,0,0,1-.56-.39L179,37.35l4.49-8a.59.59,0,0,1,.54-.39m-9,2.76h2a.63.63,0,0,1,.57.39l1.39,2.42c-.09.14-2.18,3.85-2.18,3.85a.62.62,0,0,1-.56.39h-2a.28.28,0,0,1-.26-.14.41.41,0,0,1,0-.31l2.14-3.79-1.36-2.37a.31.31,0,0,1,0-.31A.32.32,0,0,1,175.09,31.76Z"/>
  </g>
  <g id="xing">    
    <path d="M161.67,26a.84.84,0,0,0-.77.55s-6.22,11-6.4,11.38l4.08,7.52a.89.89,0,0,0,.8.55h2.88a.43.43,0,0,0,.38-.18.45.45,0,0,0,0-.45l-4.07-7.45L165,26.63a.48.48,0,0,0,0-.45.46.46,0,0,0-.39-.18m-15,3.95a.39.39,0,0,0-.37.62l1.94,3.4-3.06,5.4a.58.58,0,0,0,0,.45.4.4,0,0,0,.37.18h2.89a.88.88,0,0,0,.79-.55l3.11-5.5-2-3.45a.89.89,0,0,0-.81-.55"/>
  </g>
  <g id="odnoklassniki-box">    
    <path d="M139,27H125a2,2,0,0,0-2,2V43a2,2,0,0,0,2,2h14a2,2,0,0,0,2-2V29A2,2,0,0,0,139,27Zm-7,2a3.54,3.54,0,1,1-3.54,3.54A3.54,3.54,0,0,1,132,29Zm3.15,9.13a5.85,5.85,0,0,1-2.45.74l.55.57,2.09,2.09a.79.79,0,0,1,0,1.13l-.09.11a.82.82,0,0,1-1.15,0L132,40.68l-2.08,2.09a.82.82,0,0,1-1.15,0l-.1-.11a.8.8,0,0,1,0-1.13l2.09-2.09.56-.56a6,6,0,0,1-2.48-.74c-.89-.57-1.28-.91-.93-1.61.2-.4.75-.74,1.48-.17a4.63,4.63,0,0,0,5.2,0c.74-.57,1.29-.23,1.48.17C136.43,37.22,136,37.56,135.15,38.13Zm-4.9-5.59A1.75,1.75,0,1,1,132,34.29,1.75,1.75,0,0,1,130.25,32.54Z"/>
  </g>
  <g id="odnoklassniki">    
    <path d="M113.85,36.74c-.28-.57-1.07-1.05-2.12-.24a6.61,6.61,0,0,1-7.42,0c-1.05-.81-1.84-.33-2.12.24-.5,1,.06,1.49,1.33,2.3a8.54,8.54,0,0,0,3.54,1.06l-.8.8c-1.14,1.13-2.24,2.22-3,3a1.14,1.14,0,0,0,0,1.62l.14.16a1.17,1.17,0,0,0,1.64,0l3-3c1.15,1.13,2.24,2.22,3,3a1.17,1.17,0,0,0,1.64,0l.13-.16a1.12,1.12,0,0,0,0-1.62l-3-3-.79-.81a8.36,8.36,0,0,0,3.5-1.05c1.27-.81,1.83-1.3,1.33-2.3M108,28.57a2.49,2.49,0,1,1-2.5,2.49,2.5,2.5,0,0,1,2.5-2.49m0,7.55A5.06,5.06,0,1,0,103,31.06,5.05,5.05,0,0,0,108,36.12Z"/>
  </g>
  <g id="vk-box">    
    <path d="M77,27H91a2,2,0,0,1,2,2V43a2,2,0,0,1-2,2H77a2,2,0,0,1-2-2V29a2,2,0,0,1,2-2M89.24,38c-1.18-1.09-1-.92.4-2.81.86-1.15,1.21-1.85,1.1-2.15s-.74-.21-.74-.21l-2.11,0a.43.43,0,0,0-.27,0,.64.64,0,0,0-.19.23,13.26,13.26,0,0,1-.78,1.65c-.94,1.59-1.32,1.67-1.47,1.58-.35-.23-.27-.93-.27-1.43,0-1.54.24-2.19-.45-2.35a3.22,3.22,0,0,0-1-.1,4.64,4.64,0,0,0-1.75.18c-.22.12-.43.38-.31.39a1,1,0,0,1,.62.32,2,2,0,0,1,.21.95s.12,1.82-.29,2.05-.68-.17-1.51-1.61a12.13,12.13,0,0,1-.76-1.56L79.5,33l-.31-.15h-2s-.3,0-.41.15,0,.32,0,.32a22.63,22.63,0,0,0,3.35,5.48,4.54,4.54,0,0,0,3.48,1.51h.84a.48.48,0,0,0,.38-.08.47.47,0,0,0,.12-.29s0-1.13.5-1.29,1.18,1.08,1.88,1.57a1.33,1.33,0,0,0,.93.28l1.88,0s1-.06.51-.83A6.08,6.08,0,0,0,89.24,38Z"/>
  </g>
  <g id="vk">    
    <path d="M67.83,38.17a8.82,8.82,0,0,1,2,2.3c.66,1.1-.73,1.18-.73,1.18l-2.67,0a1.88,1.88,0,0,1-1.33-.4c-1-.68-2-2.48-2.68-2.24s-.72,1.84-.72,1.84a.65.65,0,0,1-.17.4.67.67,0,0,1-.55.12H59.78a6.46,6.46,0,0,1-5-2.15c-2.54-2.63-4.78-7.81-4.78-7.81s-.12-.31,0-.49.59-.17.59-.17h2.86A.75.75,0,0,1,54,31a.92.92,0,0,1,.25.35,18.25,18.25,0,0,0,1.08,2.21C56.49,35.6,57,36,57.42,35.83c.62-.32.45-2.91.45-2.91a2.86,2.86,0,0,0-.3-1.36,1.35,1.35,0,0,0-.89-.45c-.17,0,.1-.39.45-.57a6.82,6.82,0,0,1,2.5-.25,5,5,0,0,1,1.4.13c1,.24.65,1.16.65,3.36,0,.72-.1,1.69.38,2,.22.15.76,0,2.1-2.25a18.27,18.27,0,0,0,1.1-2.35.92.92,0,0,1,.26-.32,1,1,0,0,1,.39-.08h3s.91-.1,1.06.3-.34,1.43-1.58,3.06C66.39,36.87,66.16,36.62,67.83,38.17Z"/>
  </g>
  <g id="instagram-box">    
    <path d="M39.39,36A3.39,3.39,0,1,1,36,32.61,3.39,3.39,0,0,1,39.39,36ZM45,30.63V41.37A4,4,0,0,1,41.37,45H30.63A4,4,0,0,1,27,41.37V30.63A4,4,0,0,1,30.63,27H41.37A4,4,0,0,1,45,30.63ZM41.65,36A5.65,5.65,0,1,0,36,41.65,5.65,5.65,0,0,0,41.65,36Zm1.69-5.93a1.41,1.41,0,1,0-1.41,1.41A1.41,1.41,0,0,0,43.34,30.07Z"/>
  </g>
  <g id="instagram">    
    <path d="M8.22,27h7.56A5.22,5.22,0,0,1,21,32.22v7.56A5.22,5.22,0,0,1,15.78,45H8.22A5.22,5.22,0,0,1,3,39.78V32.22A5.22,5.22,0,0,1,8.22,27M8,28.8A3.24,3.24,0,0,0,4.8,32h0V40A3.24,3.24,0,0,0,8,43.2H16A3.24,3.24,0,0,0,19.2,40h0V32A3.24,3.24,0,0,0,16,28.8H8m8.69,1.35a1.13,1.13,0,1,1-1.13,1.13,1.13,1.13,0,0,1,1.13-1.12M12,31.5A4.5,4.5,0,1,1,7.5,36,4.5,4.5,0,0,1,12,31.5m0,1.8A2.7,2.7,0,1,0,14.7,36,2.7,2.7,0,0,0,12,33.3Z"/>
  </g>
  <g id="pinterest-box">    
    <path d="M235,3H221a2,2,0,0,0-2,2V19a2,2,0,0,0,2,2h14a2,2,0,0,0,2-2V5A2,2,0,0,0,235,3Zm-6.1,12.78A2.64,2.64,0,0,1,227,15l-.85,2.9-.06.17,0,0a1,1,0,0,1-.84.48,1,1,0,0,1-1-1s0-.09,0-.14h0l0-.16,1.66-5a4.77,4.77,0,0,1-.18-1.33c0-1.56.83-2,1.49-2s1.28.23,1.28,1.18c0,1.21-.8,1.83-.8,2.7a1.21,1.21,0,0,0,1.21,1.21,2.77,2.77,0,0,0,2.85-3.07,3.79,3.79,0,0,0-7.56,0,3.51,3.51,0,0,0,.49,1.74.92.92,0,0,1,.14.47.9.9,0,0,1-.9.9.91.91,0,0,1-.79-.45,5.11,5.11,0,0,1-.74-2.65,5.58,5.58,0,0,1,11.16,0A4.61,4.61,0,0,1,228.9,15.78Z"/>
  </g>
  <g id="pinterest">    
    <path d="M205.25,17.25a3.7,3.7,0,0,1-2.65-1.15l-1.19,4-.08.26,0,0a1.36,1.36,0,0,1-1.17.66,1.38,1.38,0,0,1-1.37-1.38,1.1,1.1,0,0,1,0-.18h0l.06-.22,2.31-6.95a6.47,6.47,0,0,1-.25-1.84c0-2.15,1.16-2.8,2.08-2.8s1.78.33,1.78,1.64c0,1.68-1.12,2.54-1.12,3.74a1.69,1.69,0,0,0,1.68,1.69c2.92,0,4-2.19,4-4.25a5.26,5.26,0,0,0-10.5,0,4.79,4.79,0,0,0,.68,2.41,1.34,1.34,0,0,1,.17.65,1.25,1.25,0,0,1-1.25,1.25,1.29,1.29,0,0,1-1.08-.62,7.23,7.23,0,0,1-1-3.69,7.76,7.76,0,0,1,15.5,0C211.75,13.72,209.71,17.25,205.25,17.25Z"/>
  </g>
  <g id="linkedin-box">    
    <path d="M187,3H173a2,2,0,0,0-2,2V19a2,2,0,0,0,2,2h14a2,2,0,0,0,2-2V5A2,2,0,0,0,187,3ZM176.4,18.3h-2.7V10.2h2.7ZM175,8.68A1.63,1.63,0,1,1,176.67,7,1.63,1.63,0,0,1,175,8.68ZM186.3,18.3h-2.7V13.53a1.35,1.35,0,0,0-2.7,0V18.3h-2.7V10.2h2.7v1.08A2.8,2.8,0,0,1,183.15,10a3.15,3.15,0,0,1,3.15,3.15Z"/>
  </g>
  <g id="linkedin">    
    <path d="M165,21h-4V14.25a2.25,2.25,0,0,0-2.25-1.94A1.8,1.8,0,0,0,157,14.25V21h-4V9h4v2a4.59,4.59,0,0,1,3.5-1.76,4.51,4.51,0,0,1,4.5,4.51V21m-14,0h-4V9h4V21M149,3a2,2,0,1,1-2,2A2,2,0,0,1,149,3Z"/>
  </g>
  <g id="google-plus-box">    
    <path d="M139,3H125a2,2,0,0,0-2,2V19a2,2,0,0,0,2,2h14a2,2,0,0,0,2-2V5A2,2,0,0,0,139,3Zm-6.2,11.88a4.39,4.39,0,0,1-4.8,1.28,4.45,4.45,0,1,1,4.41-7.55c-.36.4-.73.79-1.13,1.16a3.12,3.12,0,0,0-2.63-.51,2.81,2.81,0,1,0,1.89,5.29A2.46,2.46,0,0,0,132,12.86c-.85,0-1.7,0-2.55,0,0-.51,0-1,0-1.51,1.42,0,2.84,0,4.25,0A5,5,0,0,1,132.8,14.88Zm6.2-2.29h-1.27c0,.42,0,.85,0,1.27h-1.27c0-.42,0-.85,0-1.27h-1.27V11.32h1.27c0-.42,0-.85,0-1.27h1.26c0,.42,0,.85,0,1.27H139Z"/>
  </g>
  <g id="google-plus">    
    <path d="M98,11.53a6.34,6.34,0,0,1,6.34-6,6.44,6.44,0,0,1,4.24,1.57A22.61,22.61,0,0,1,107,8.74,4.19,4.19,0,0,0,102,8.61a4.07,4.07,0,0,0-.17,6.34c1.93,1.75,5.58.88,6.12-1.8-1.21,0-2.42,0-3.63,0,0-.72,0-1.44,0-2.17,2,0,4,0,6.07,0a7.28,7.28,0,0,1-1.15,4.91,6.27,6.27,0,0,1-7.23,1.92A6.36,6.36,0,0,1,98,11.53Zm16.34-.6h-1.81v1.8l1.81,0c0,.6,0,1.21,0,1.81h1.81q0-.91,0-1.81l1.81,0v-1.8h-1.81c0-.6,0-1.21,0-1.81h-1.8Q114.36,10,114.35,10.93Z"/>
  </g>
  <g id="twitter-box">    
    <path d="M91,3H77a2,2,0,0,0-2,2V19a2,2,0,0,0,2,2H91a2,2,0,0,0,2-2V5A2,2,0,0,0,91,3ZM89.14,9.6c-.06,4.16-2.72,7-6.69,7.18a6.31,6.31,0,0,1-3.85-1.11,4.84,4.84,0,0,0,3.51-1A2.4,2.4,0,0,1,79.9,13a3,3,0,0,0,1,0A2.42,2.42,0,0,1,79,10.57a2.64,2.64,0,0,0,1,.3,2.59,2.59,0,0,1-.71-3.22,6.89,6.89,0,0,0,5,2.51A2.45,2.45,0,0,1,88.47,8,5.06,5.06,0,0,0,90,7.37,2.63,2.63,0,0,1,89,8.7a4,4,0,0,0,1.3-.37A4.3,4.3,0,0,1,89.14,9.6Z"/>
  </g>
  <g id="twitter">    
    <path d="M70,5.91a8.19,8.19,0,0,1-2.35.66,4.11,4.11,0,0,0,1.8-2.28,8.26,8.26,0,0,1-2.6,1,4,4,0,0,0-3-1.3,4.1,4.1,0,0,0-4.08,4.1,4.26,4.26,0,0,0,.11.94A11.66,11.66,0,0,1,51.4,4.76a4.09,4.09,0,0,0,1.27,5.46,4.06,4.06,0,0,1-1.86-.48v0a4.1,4.1,0,0,0,3.29,4,4,4,0,0,1-1.85.07,4.09,4.09,0,0,0,3.82,2.85A8.15,8.15,0,0,1,51,18.46a8.34,8.34,0,0,1-1-.06A11.67,11.67,0,0,0,68,8.58c0-.18,0-.35,0-.54A8.19,8.19,0,0,0,70,5.91Z"/>
  </g>
  <g id="facebook-box">    
    <path d="M43,2.95H29a2,2,0,0,0-2,2v14a2,2,0,0,0,2,2H43a2,2,0,0,0,2-2v-14A2,2,0,0,0,43,2.95Zm-.7,4.5H40.5a.9.9,0,0,0-.9.9v1.8h2.7v2.7H39.6v6.3H36.9v-6.3H35.1v-2.7h1.8V7.9A3.15,3.15,0,0,1,40,4.75H42.3Z"/>
  </g>
  <g id="facebook">
    <path d="M17,2h0V6H15c-.69,0-1,.81-1,1.5V10h3v4H14v8H10V14H7V10h3V6a4,4,0,0,1,4-4Z"/>
  </g>
</svg>
